<svg xmlns="http://www.w3.org/2000/svg" viewBox="0 0 200 200" width="100%" height="100%">
  <defs>
    <linearGradient id="examGrad" x1="0%" y1="0%" x2="100%" y2="100%">
      <stop offset="0%" stop-color="#2563eb" />
      <stop offset="100%" stop-color="#1d4ed8" />
    </linearGradient>
  </defs>
  <rect width="100%" height="100%" rx="24" fill="#eff6ff" />
  <rect x="20" y="20" width="160" height="160" rx="16" fill="url(#examGrad)" />
  <g transform="translate(68, 60)" fill="none" stroke="#ffffff" stroke-width="5" stroke-linecap="round" stroke-linejoin="round">
    <path d="M14 2H6a2 2 0 0 0-2 2v16a2 2 0 0 0 2 2h12a2 2 0 0 0 2-2V8z" transform="scale(2.5)" />
    <polyline points="14 2 14 8 20 8" transform="scale(2.5)" />
    <line x1="9" y1="13" x2="15" y2="13" transform="scale(2.5)" />
    <line x1="9" y1="17" x2="15" y2="17" transform="scale(2.5)" />
  </g>
</svg>
